<?xml version="1.0" encoding="utf-8"?>
<!-- Generator: Adobe Illustrator 25.4.0, SVG Export Plug-In . SVG Version: 6.00 Build 0)  -->
<svg version="1.1" id="Layer_1" xmlns="http://www.w3.org/2000/svg" xmlns:xlink="http://www.w3.org/1999/xlink" x="0px" y="0px"
	 viewBox="0 0 384.1 388.7" style="enable-background:new 0 0 384.1 388.7;" xml:space="preserve">
<g>
	<path d="M306.9,309.4c-0.3,5.9-0.2,12-1,18c-2.5,17.8-17.9,31.5-35.9,32.5c-1.9,0.1-3.7,0.2-5.6,0.2c-65.4,0-130.7,0-196.1,0
		c-17.5,0-30.8-7-38.2-23c-2.4-5.2-3.5-11.5-3.6-17.4c-0.2-66.5-0.2-133-0.1-199.5C26.4,96.5,43.2,80,67,79.9c3.4,0,6.7,0,10.6,0
		c0-4.3-0.1-8.4,0-12.4c0.3-18.9,13.4-34.5,31.9-38.1c3.2-0.6,6.5-0.7,9.7-0.7c65.6,0,131.2,0.2,196.9-0.1
		c24.1-0.1,38.3,16.2,41.1,32c0.5,2.9,0.7,6,0.7,8.9c0,66.1,0.1,132.2,0,198.4c0,20.1-11.6,35.6-30.1,39.8
		C321,309.1,314.1,308.9,306.9,309.4z M50.3,220.1c0,32.8,0,65.6,0,98.4c0,12,5.7,17.7,17.6,17.7c65.6,0,131.2,0,196.8,0
		c12.1,0,17.9-5.8,17.9-17.9c0-65.5,0-131,0-196.4c0-12.3-5.8-18.1-18.1-18.1c-65.4,0-130.7,0-196.1,0c-12.7,0-18.2,5.5-18.2,18.2
		C50.3,154.7,50.3,187.4,50.3,220.1z M306.6,284.9c4.7,0,8.8,0.2,12.9,0c8.8-0.5,14.4-7.1,14.4-17.1c0-66,0-132,0-197.9
		c0-1.2,0-2.5-0.2-3.7c-0.5-5.1-3-9.1-7.5-11.4c-2.8-1.4-6.2-2-9.3-2.1c-66.2-0.1-132.5-0.1-198.7-0.1c-1,0-2,0.1-3,0.1
		c-6.4,0.6-11.8,4.7-13,11.1c-0.9,5.2-0.7,10.5-0.9,16c2.2,0,3.7,0,5.2,0c52.8,0,105.5,0,158.3,0.1c4,0,8,0.3,11.8,1.2
		c18.2,4.4,29.9,19.8,29.9,39.2c0,53.3,0,106.5,0,159.8C306.6,281.6,306.6,283.1,306.6,284.9z"/>
</g>
</svg>
