<?xml version="1.0" encoding="utf-8"?>
<!-- Generator: Adobe Illustrator 21.1.0, SVG Export Plug-In . SVG Version: 6.00 Build 0)  -->
<svg version="1.1" id="Layer_1" xmlns="http://www.w3.org/2000/svg" xmlns:xlink="http://www.w3.org/1999/xlink" x="0px" y="0px"
	 viewBox="0 0 120 32" style="enable-background:new 0 0 120 32;" xml:space="preserve">
<style type="text/css">
	.st0{fill-rule:evenodd;clip-rule:evenodd;}
</style>
<g>
	<path class="st0" d="M42.4,21.9c-3.2,0-5.8-2.7-5.8-6s2.6-6,5.8-6c3.2,0,5.8,2.7,5.8,6S45.6,21.9,42.4,21.9 M42.4,6
		c-2.2-0.1-4.2,0.6-5.9,1.8V4c0-2.1-1.7-3.9-3.8-3.9h0v16.3c0,5.3,4.2,9.5,9.3,9.5c5.4,0.1,9.9-4.4,10-9.9C52,10.5,47.7,6,42.4,6"/>
	<path class="st0" d="M9.7,22c-3.2,0-5.9-2.7-5.9-6c0-3.3,2.6-6,5.9-6c3.2,0,5.9,2.7,5.9,6C15.5,19.3,12.9,22,9.7,22 M9.7,6
		C4.3,6,0,10.5,0,16c0,5.5,4.3,10,9.7,10c5.3,0,9.7-4.5,9.7-10C19.4,10.5,15,6,9.7,6"/>
	<path class="st0" d="M104,31.8c3.6-0.1,6.7-2.4,8.1-5.8l8-20.1h-1.6c-1.5,0-2.9,1-3.5,2.4l-4.3,10.9c0,0.1-0.1,0.1-0.1,0.1
		c-0.1,0.1-0.3,0-0.3-0.1l-5-12.7c-0.1-0.2-0.3-0.3-0.5-0.3h-3.4c-0.1,0-0.3,0.1-0.3,0.3c0,0,0,0.1,0,0.1l7.2,18.2
		c0.1,0.1,0,0.3,0,0.5c-0.9,1.5-2.5,2.5-4.2,2.6c-0.1,0-0.2,0.1-0.2,0.3v3.4C103.7,31.7,103.8,31.8,104,31.8L104,31.8z"/>
	<path class="st0" d="M96.2,12l-9.5,4.3c0,0-0.1,0-0.1,0c-0.1,0-0.3-0.1-0.3-0.3c0-1.6,0.5-3.2,1.6-4.3c2.2-2.4,5.9-2.5,8.3-0.2
		c0,0,0,0.1,0.1,0.1C96.4,11.8,96.3,12,96.2,12 M89.9,6.3c-5.2,1.3-8.4,6.7-7.1,12c1.3,5.4,6.5,8.6,11.7,7.3
		c4.2-1.1,7.3-4.9,7.4-9.4l-4.1,1.8c-0.1,0.1-0.2,0.1-0.3,0.3c-0.3,0.6-0.6,1.2-1.1,1.7c-2.2,2.4-5.9,2.5-8.3,0.3c0,0,0-0.1-0.1-0.1
		c-0.1-0.1,0-0.3,0.1-0.3l13.2-6c0.1,0,0.2-0.2,0.1-0.3C100.4,8.3,95.1,5,89.9,6.3"/>
	<path class="st0" d="M72.1,12.4V0h0c-2.1,0-3.8,1.8-3.8,3.9v18c0,2.2,1.7,3.9,3.8,3.9h0v-7.2c0-0.1,0.1-0.3,0.2-0.4l1.2-1.2
		c0,0,0,0,0,0c0.2-0.2,0.5-0.1,0.7,0.1l6.1,8.5c0.1,0.1,0.2,0.2,0.4,0.2h4.5L77,14.3c-0.2-0.2-0.1-0.5,0.1-0.7l8-7.7h-5.4
		c-0.1,0-0.3,0.1-0.3,0.1l-6.8,6.5c0,0-0.1,0.1-0.2,0.1C72.2,12.7,72.1,12.6,72.1,12.4"/>
	<path class="st0" d="M65.9,6h-2.2c-0.1,0-0.3-0.1-0.3-0.3V0h0c-2.1,0-3.8,1.7-3.8,3.9v15.2c0,3.7,2.9,6.7,6.5,6.7v-3.7
		c0-0.1-0.1-0.2-0.2-0.3c-1.4-0.1-2.5-1.3-2.5-2.8v-9c0-0.1,0.1-0.3,0.3-0.3h2.2c0.1,0,0.3-0.1,0.3-0.3V6.2C66.2,6.1,66.1,6,65.9,6"
		/>
	<path class="st0" d="M57.6,25.9L57.6,25.9l0-19.7c0-0.1-0.1-0.3-0.3-0.3H54c-0.1,0-0.3,0.1-0.3,0.3V22
		C53.8,24.2,55.5,25.9,57.6,25.9"/>
	<path class="st0" d="M31.2,9.7V6.3c0-0.1-0.1-0.3-0.3-0.3l-0.3,0c-5.4,0-9.7,4.5-9.7,10v9.9H21c2.1,0,3.8-1.7,3.8-3.9l0-6
		c0-3.3,2.6-6.1,5.9-6.1h0.2C31.1,9.9,31.2,9.8,31.2,9.7"/>
</g>
<g>
</g>
<g>
</g>
<g>
</g>
<g>
</g>
<g>
</g>
<g>
</g>
<g>
</g>
<g>
</g>
<g>
</g>
<g>
</g>
<g>
</g>
<g>
</g>
<g>
</g>
<g>
</g>
<g>
</g>
</svg>
