<svg xmlns="http://www.w3.org/2000/svg" viewBox="0 0 511.03 511.03"><defs><style>.cls-1{fill:#fff;}</style></defs><title>Asset 1</title><g id="Layer_2" data-name="Layer 2"><g id="Layer_1-2" data-name="Layer 1"><path class="cls-1" d="M0,173.33V0H511V511H0V186.28c1.84,2.1,3.57,4.31,5.53,6.29Q22,209.19,38.59,225.72c7.28,7.28,12,15.73,12.46,26.29.55,12.54,2.78,24.65,9.21,35.75.75,1.29.06,4.11-.91,5.6-15.23,23.36-8,53,16.73,66,5.57,2.94,12,4.18,18.38,6.28.31,1.86.63,4.15,1.07,6.42,3.4,17.65,19.36,33.15,36.89,35.09,4.41.49,5.24,2.42,5.9,6.07,3.31,18.27,13.9,30.34,31.56,36.15,9.31,3,18.61,2.22,28-.41.78,1.6,1.43,2.91,2.06,4.23,11.29,23.63,39.45,33,62.42,20.38,11.3-6.2,19.61-15.64,26.26-27.14,1.68,1.17,3.27,2.31,4.89,3.39a40.94,40.94,0,0,0,20.84,7.32c25.51,1.35,44.38-13.74,48.79-39,.51-2.88,1.39-4.22,4.43-4.66,20.84-3.05,35.69-18,38.68-39,.4-2.82,1.21-3.91,4.11-4.25a41.45,41.45,0,0,0,22.13-9.35c18.95-15.83,22.73-40.39,9.36-61.16-1.42-2.19-1.87-3.78-.26-6.18a84.52,84.52,0,0,0,14.31-45.91c.16-6.8,2.71-11.95,7.47-16.65,13.35-13.17,26.48-26.57,39.66-39.92q12.08-12.22.11-24.28-62.78-63.28-125.6-126.53c-8.68-8.73-16.51-8.66-25.3.18-13.35,13.41-26.77,26.76-40,40.33a20.77,20.77,0,0,1-15.94,6.65q-42.58-.18-85.16,0a21.34,21.34,0,0,1-16.38-6.84c-12.64-13-25.5-25.68-38.28-38.48-9.75-9.78-17.09-9.82-26.72-.12Q70.13,102.1,10.51,162.2C6.92,165.82,3.5,169.62,0,173.33Z"/><path d="M0,173.33c3.5-3.71,6.92-7.51,10.51-11.13Q70.12,102.08,129.79,42c9.63-9.7,17-9.66,26.72.12,12.78,12.8,25.64,25.53,38.28,38.48a21.34,21.34,0,0,0,16.38,6.84q42.59-.21,85.16,0a20.77,20.77,0,0,0,15.94-6.65c13.19-13.57,26.61-26.92,40-40.33,8.79-8.84,16.62-8.91,25.3-.18q62.82,63.25,125.6,126.53,12,12.09-.11,24.28c-13.18,13.35-26.31,26.75-39.66,39.92-4.76,4.7-7.31,9.85-7.47,16.65a84.52,84.52,0,0,1-14.31,45.91c-1.61,2.4-1.16,4,.26,6.18,13.37,20.77,9.59,45.33-9.36,61.16a41.45,41.45,0,0,1-22.13,9.35c-2.9.34-3.71,1.43-4.11,4.25-3,21-17.84,35.91-38.68,39-3,.44-3.92,1.78-4.43,4.66-4.41,25.3-23.28,40.39-48.79,39a40.94,40.94,0,0,1-20.84-7.32c-1.62-1.08-3.21-2.22-4.89-3.39-6.65,11.5-15,20.94-26.26,27.14-23,12.6-51.13,3.25-62.42-20.38-.63-1.32-1.28-2.63-2.06-4.23-9.38,2.63-18.68,3.46-28,.41-17.66-5.81-28.25-17.88-31.56-36.15-.66-3.65-1.49-5.58-5.9-6.07-17.53-1.94-33.49-17.44-36.89-35.09-.44-2.27-.76-4.56-1.07-6.42-6.33-2.1-12.81-3.34-18.38-6.28-24.7-13-32-42.68-16.73-66,1-1.49,1.66-4.31.91-5.6-6.43-11.1-8.66-23.21-9.21-35.75-.46-10.56-5.18-19-12.46-26.29Q22,209.16,5.53,192.57c-2-2-3.69-4.19-5.53-6.29ZM222.22,341.92C242,355,242.28,355.5,249.3,379.62a4.38,4.38,0,0,0,3,2.55c13.54,1.42,23.62,8.86,32.72,18.23,7.52,7.74,15.08,15.45,22.86,22.92a15,15,0,0,0,17.51,2.6c5.87-3,9.67-9.56,8.09-16.15a24.77,24.77,0,0,0-5.91-10.55c-8.48-9.11-17.57-17.65-26.15-26.67a14.65,14.65,0,0,1,0-20.67c5.69-5.82,14.75-6,21.06-.26,2.94,2.68,5.66,5.6,8.47,8.42,6.56,6.59,13,13.3,19.71,19.73,5.22,5,11.5,5.92,17.42,2.89s9.57-8.26,8.44-14.94a24.16,24.16,0,0,0-5.73-11.6c-8.37-9.2-17.57-17.64-26.1-26.71s-4.1-22.77,7.73-25.15c5.72-1.15,10.36,1.08,14.34,5.1,8.87,9,17.65,18,26.71,26.81,8.22,7.95,20.88,5.5,25.13-4.76,3.06-7.36.68-13.47-4.74-18.92Q365.42,263.78,317,215.06a10.7,10.7,0,0,0-7.25-2.81A92.69,92.69,0,0,1,267,204.64a29.78,29.78,0,0,0-9-2.38c-7.78-.75-12.83,3.91-17.74,9.2a74.21,74.21,0,0,1-99.38,8.88c-10.29-7.74-11.23-15.76-2.92-25.76q23.4-28.12,46.86-56.22c5.81-7,11.6-14,17.92-21.57-14.54-1.67-24.24-9.94-33.34-19.41-8.5-8.83-17.34-17.33-25.06-25L33.83,180.44c2.07,1.33,3.68,2,4.86,3.18,7.33,7.22,14.49,14.62,21.85,21.81,14.65,14.3,20.55,32.06,21.1,52.08.08,3.11,1.12,6.2,1.82,9.85,25.85-25.29,62.74-17.63,76.69,11.82,20.85-9.41,40.32-7.84,56.16,9.68C230.54,304.61,231.3,322.77,222.22,341.92Zm251.67-163L364.18,71.55c-9.65,9.48-20,19.79-30.51,29.88a83.51,83.51,0,0,1-11.59,9.29c-7.9,5.21-16.95,6.32-26.19,6.4-15.26.13-30.53.08-45.79.57-4.76.16-9.75.5-13.44,5-21.12,25.6-42.43,51-63.66,76.55-.88,1.06-1.61,2.26-2.55,3.6a45.64,45.64,0,0,0,31.69-.61c8.56-3.2,14.69-9.43,20.84-15.74a47.36,47.36,0,0,1,26-13.6c12.2-2.3,23.14,1.71,34.25,5.95,15.86,6,31.56,4.86,46.67-2.9,11-5.64,18.71-14.48,24.91-25a14.46,14.46,0,0,1,20.7-5.12c6.93,4.38,9.47,13.42,4.53,20.43a249.63,249.63,0,0,1-20.28,24.93c-3.8,4.14-9,7-13.79,10.57l72.95,71.52c4.77-7.9,7-17.21,7.16-26.89.26-15,6.4-27.12,17.08-37.35C453.2,199.34,463.05,189.49,473.89,178.87Zm-349.65,181c.23,8.91,3,13.92,9,16.73,6.19,2.91,12.21,2,17-2.73,14.74-14.58,29.4-29.24,43.77-44.18a15.29,15.29,0,0,0-.61-21.94c-6.08-5.86-15.43-5.8-21.91.62-14.14,14-28.21,28.08-42,42.44C126.7,353.71,125.3,358,124.24,359.86ZM80.31,318.79c1.21,6.87,4.06,11.69,9.81,14.43,6,2.85,11.87,2.13,16.64-2.39,7.82-7.42,15.48-15,22.79-23a15.45,15.45,0,0,0-.89-21.94c-6.11-5.72-15.07-5.64-21.49.57-7.28,7-14.54,14.12-21.29,21.64C83.29,311,82.12,315.2,80.31,318.79ZM184.73,421.58c1.68-.81,5.48-1.7,8-4,8.12-7.59,15.95-15.51,23.49-23.66,5.16-5.58,4.55-14.89-.66-20.49s-14.47-7-20.24-1.8c-8.69,7.92-17,16.36-24.84,25.09-4.2,4.66-4.24,10.66-1.29,16.34C172,418.53,176.64,421.26,184.73,421.58Zm56.41,27.76c7.29-.09,18.76-9.83,20.9-17.75a15.28,15.28,0,0,0-17.46-19.41c-6.14,1-17.14,11.32-18.47,17.35C223.76,440.2,230.79,449.47,241.14,449.34Z"/><path class="cls-1" d="M222.22,341.92c9.08-19.15,8.32-37.31-5.91-53.06-15.84-17.52-35.31-19.09-56.16-9.68-14-29.45-50.84-37.11-76.69-11.82-.7-3.65-1.74-6.74-1.82-9.85-.55-20-6.45-37.78-21.1-52.08-7.36-7.19-14.52-14.59-21.85-21.81-1.18-1.15-2.79-1.85-4.86-3.18L144.32,72.37c7.72,7.68,16.56,16.18,25.06,25,9.1,9.47,18.8,17.74,33.34,19.41-6.32,7.61-12.11,14.6-17.92,21.57q-23.42,28.13-46.86,56.22c-8.31,10-7.37,18,2.92,25.76a74.21,74.21,0,0,0,99.38-8.88c4.91-5.29,10-10,17.74-9.2a29.78,29.78,0,0,1,9,2.38,92.69,92.69,0,0,0,42.69,7.61,10.7,10.7,0,0,1,7.25,2.81q48.6,48.58,96.93,97.43c5.42,5.45,7.8,11.56,4.74,18.92-4.25,10.26-16.91,12.71-25.13,4.76-9.06-8.78-17.84-17.84-26.71-26.81-4-4-8.62-6.25-14.34-5.1-11.83,2.38-16.18,16.16-7.73,25.15s17.73,17.51,26.1,26.71a24.16,24.16,0,0,1,5.73,11.6c1.13,6.68-2.38,11.85-8.44,14.94s-12.2,2.1-17.42-2.89C344,373.34,337.53,366.63,331,360c-2.81-2.82-5.53-5.74-8.47-8.42-6.31-5.74-15.37-5.56-21.06.26a14.65,14.65,0,0,0,0,20.67c8.58,9,17.67,17.56,26.15,26.67a24.77,24.77,0,0,1,5.91,10.55c1.58,6.59-2.22,13.13-8.09,16.15a15,15,0,0,1-17.51-2.6c-7.78-7.47-15.34-15.18-22.86-22.92-9.1-9.37-19.18-16.81-32.72-18.23a4.38,4.38,0,0,1-3-2.55C242.28,355.5,242,355,222.22,341.92Z"/><path class="cls-1" d="M473.89,178.87c-10.84,10.62-20.69,20.47-30.75,30.1-10.68,10.23-16.82,22.31-17.08,37.35-.17,9.68-2.39,19-7.16,26.89L346,201.69c4.77-3.58,10-6.43,13.79-10.57A249.63,249.63,0,0,0,380,166.19c4.94-7,2.4-16.05-4.53-20.43a14.46,14.46,0,0,0-20.7,5.12c-6.2,10.55-13.94,19.39-24.91,25-15.11,7.76-30.81,8.94-46.67,2.9-11.11-4.24-22-8.25-34.25-5.95a47.36,47.36,0,0,0-26,13.6c-6.15,6.31-12.28,12.54-20.84,15.74a45.64,45.64,0,0,1-31.69.61c.94-1.34,1.67-2.54,2.55-3.6,21.23-25.51,42.54-51,63.66-76.55,3.69-4.47,8.68-4.81,13.44-5,15.26-.49,30.53-.44,45.79-.57,9.24-.08,18.29-1.19,26.19-6.4a83.51,83.51,0,0,0,11.59-9.29c10.54-10.09,20.86-20.4,30.51-29.88Z"/><path class="cls-1" d="M124.24,359.86c1.06-1.89,2.46-6.15,5.25-9.06,13.79-14.36,27.86-28.44,42-42.44,6.48-6.42,15.83-6.48,21.91-.62a15.29,15.29,0,0,1,.61,21.94c-14.37,14.94-29,29.6-43.77,44.18-4.81,4.75-10.83,5.64-17,2.73C127.24,373.78,124.47,368.77,124.24,359.86Z"/><path class="cls-1" d="M80.31,318.79c1.81-3.59,3-7.76,5.57-10.65,6.75-7.52,14-14.61,21.29-21.64,6.42-6.21,15.38-6.29,21.49-.57a15.45,15.45,0,0,1,.89,21.94c-7.31,7.92-15,15.54-22.79,23-4.77,4.52-10.67,5.24-16.64,2.39C84.37,330.48,81.52,325.66,80.31,318.79Z"/><path class="cls-1" d="M184.73,421.58c-8.09-.32-12.73-3.05-15.58-8.53-3-5.68-2.91-11.68,1.29-16.34,7.88-8.73,16.15-17.17,24.84-25.09,5.77-5.24,14.92-3.93,20.24,1.8s5.82,14.91.66,20.49c-7.54,8.15-15.37,16.07-23.49,23.66C190.21,419.88,186.41,420.77,184.73,421.58Z"/><path class="cls-1" d="M241.14,449.34c-10.35.13-17.38-9.14-15-19.81,1.33-6,12.33-16.37,18.47-17.35A15.28,15.28,0,0,1,262,431.59C259.9,439.51,248.43,449.25,241.14,449.34Z"/></g></g></svg>