<?xml version="1.0" encoding="UTF-8"?>
<svg width="320px" height="277px" viewBox="0 0 320 277" version="1.1" xmlns="http://www.w3.org/2000/svg" xmlns:xlink="http://www.w3.org/1999/xlink">
    <title>Honey</title>
    <defs>
        <path d="M506.846779,0 L506.846779,17.9670662 L535.595246,34.5799825 L556,22.788675 L556,25.0953675 L537.222938,35.9457262 L537.222938,71.3368075 L556,82.1871662 L556,84.7095025 L535.408523,72.8101413 L506.846779,89.3154675 L506.846779,123.470655 L535.594783,140.084035 L556,128.292264 L556,130.59942 L537.222938,141.450243 L537.222938,176.840396 L556,187.690755 L556,190.063764 L535.53872,178.239066 L506.846779,194.81952 L506.846779,228.824916 L535.594783,245.437833 L556,233.646061 L556,235.953218 L537.222938,246.803576 L537.222938,282.194194 L556,293.044553 L556,295.567816 L535.40806,283.667991 L506.846779,300.173318 L506.846779,334.328969 L535.594783,350.941421 L556,339.14965 L556,341.45727 L537.222938,352.307629 L537.222938,371 L533.987478,371 L533.987478,353.03247 L505.239474,336.420018 L476.495177,353.030151 L476.495177,371 L474.498209,371 L474.498209,353.030151 L445.126558,336.057365 L415.76649,353.023195 L415.76649,371 L413.769521,371 L413.769521,353.03247 L384.401577,336.062003 L355.037803,353.030151 L355.037803,371 L353.040834,371 L353.040834,353.030151 L323.669646,336.057365 L294.298459,353.030151 L294.298459,371 L292.079553,371 L292.079553,353.030151 L262.708366,336.057365 L233.337178,353.030151 L233.337178,371 L231.340209,371 L231.340209,353.030151 L201.968558,336.057365 L172.608954,353.023659 L172.608954,371 L170.611522,371 L170.611522,353.03247 L141.244041,336.062003 L111.880267,353.030151 L111.880267,371 L109.883298,371 L109.883298,353.030151 L80.5116471,336.057365 L52.390997,352.307165 L52.390997,371 L49.154611,371 L49.154611,353.03247 L20.4061437,336.420018 L0,348.212253 L0,345.905096 L18.7775256,335.054274 L18.7775256,299.663192 L0,288.81237 L0,286.28957 L20.5928672,298.189395 L49.154611,281.684533 L49.154611,247.528881 L20.4061437,230.915965 L0,242.7082 L0,240.401507 L18.7775256,229.550221 L18.7775256,194.15914 L0,183.307854 L0,180.936236 L20.4626704,192.760934 L50.1336351,175.614705 L50.1336351,142.740859 L20.4061437,125.562167 L0,137.354403 L0,135.04771 L18.7775256,124.196887 L18.7775256,88.8048787 L0,77.9540563 L0,75.4326475 L20.5919405,87.3320087 L49.154611,70.8266825 L49.154611,36.671495 L20.4061437,20.0585788 L0,31.85035 L0,29.5441212 L18.7775256,18.692835 L18.7775256,0 L22.0139117,0 L22.0139117,17.9670662 L50.7628423,34.5799825 L79.5062129,17.9703125 L79.5062129,0 L81.5031813,0 L81.5031813,17.9703125 L110.874369,34.9430988 L140.2349,17.976805 L140.2349,0 L142.231405,0 L142.231405,17.9670662 L171.600276,34.9379975 L200.963124,17.9703125 L200.963124,0 L202.960092,0 L202.960092,17.9703125 L232.33128,34.9430988 L261.702931,17.9703125 L261.702931,0 L263.921373,0 L263.921373,17.9703125 L293.292561,34.9430988 L322.664212,17.9703125 L322.664212,0 L324.660717,0 L324.660717,17.9703125 L354.032368,34.9430988 L383.392436,17.976805 L383.392436,0 L385.389404,0 L385.389404,17.9670662 L414.757812,34.9379975 L444.12066,17.9703125 L444.12066,0 L446.118092,0 L446.118092,17.9703125 L475.489743,34.9430988 L503.610393,18.692835 L503.610393,0 L506.846779,0 Z M293.292561,283.413392 L263.921373,300.385715 L263.921373,334.331287 L293.292561,351.304074 L322.664212,334.331287 L322.664212,300.386179 L293.292561,283.413392 Z M354.032368,283.413392 L324.660717,300.386179 L324.660717,334.331287 L354.032368,351.304074 L383.392436,334.338244 L383.392436,300.379223 L354.032368,283.413392 Z M475.489743,283.413392 L446.118092,300.386179 L446.118092,334.331287 L475.489743,351.304074 L503.610393,335.054274 L503.610393,299.663192 L475.489743,283.413392 Z M232.33128,283.413392 L202.960092,300.385715 L202.960092,334.331287 L232.33128,351.304074 L261.702931,334.331287 L261.702931,300.386179 L232.33128,283.413392 Z M110.874369,283.413392 L81.5031813,300.386179 L81.5031813,334.331287 L110.874369,351.304074 L140.2349,334.338244 L140.2349,300.379686 L110.874369,283.413392 Z M414.749472,283.413392 L385.389404,300.379223 L385.389404,334.328969 L414.757349,351.299436 L444.12066,334.331751 L444.12066,300.386179 L414.749472,283.413392 Z M171.591473,283.413392 L142.231405,300.379686 L142.231405,334.328969 L171.599813,351.299436 L200.963124,334.331751 L200.963124,300.386179 L171.591473,283.413392 Z M50.5756555,283.667991 L22.0139117,300.173317 L22.0139117,334.328969 L50.762379,350.941421 L79.5062129,334.331751 L79.5062129,300.386179 L50.5756555,283.667991 Z M80.5116471,230.553313 L52.390997,246.803576 L52.390997,282.194658 L80.5116471,298.444458 L109.883298,281.471671 L109.883298,247.526099 L80.5116471,230.553313 Z M141.244041,230.55795 L111.880267,247.526099 L111.880267,281.471671 L141.251918,298.444457 L170.611522,281.478164 L170.611522,247.528881 L141.244041,230.55795 Z M201.968558,230.553313 L172.608954,247.519606 L172.608954,281.478628 L201.968558,298.444458 L231.340209,281.471671 L231.340209,247.526099 L201.968558,230.553313 Z M262.708366,230.553313 L233.337178,247.526099 L233.337178,281.471671 L262.708366,298.444458 L292.079553,281.471671 L292.079553,247.526099 L262.708366,230.553313 Z M323.669646,230.553313 L294.298459,247.526099 L294.298459,281.471671 L323.669646,298.444458 L353.040834,281.471671 L353.040834,247.526099 L323.669646,230.553313 Z M384.401577,230.55795 L355.037803,247.526099 L355.037803,281.471671 L384.409454,298.444457 L413.769521,281.478628 L413.769521,247.528881 L384.401577,230.55795 Z M445.126558,230.553313 L415.76649,247.519606 L415.76649,281.478628 L445.126558,298.444458 L474.498209,281.471671 L474.498209,247.526099 L445.126558,230.553313 Z M505.239011,230.915965 L476.495177,247.526099 L476.495177,281.471671 L505.425735,298.189395 L533.987478,281.684533 L533.987478,247.528881 L505.239011,230.915965 Z M354.032368,177.908876 L324.660717,194.882126 L324.660717,228.827699 L354.032368,245.800485 L383.392436,228.834191 L383.392436,194.87517 L354.032368,177.908876 Z M475.489743,177.908876 L446.118092,194.882126 L446.118092,228.827699 L475.489743,245.800485 L503.610393,229.550221 L503.610393,194.15914 L475.489743,177.908876 Z M111.304343,178.157446 L81.5031813,195.378339 L81.5031813,228.827699 L110.874369,245.800485 L140.2349,228.834191 L140.2349,194.875634 L111.304343,178.157446 Z M232.33128,177.908876 L202.960092,194.882126 L202.960092,228.827699 L232.33128,245.800485 L261.702931,228.827699 L261.702931,194.882126 L232.33128,177.908876 Z M293.292561,177.908876 L263.921373,194.882126 L263.921373,228.827699 L293.292561,245.800485 L322.664212,228.827699 L322.664212,194.882126 L293.292561,177.908876 Z M414.749472,177.908876 L385.389404,194.875634 L385.389404,228.824916 L414.757349,245.795848 L444.12066,228.827699 L444.12066,194.882126 L414.749472,177.908876 Z M171.591473,177.908876 L142.231405,194.875634 L142.231405,228.824916 L171.599813,245.795848 L200.963124,228.827699 L200.963124,194.882126 L171.591473,177.908876 Z M50.7063156,178.239066 L22.0139117,194.81952 L22.0139117,228.824916 L50.762379,245.437832 L79.5062129,228.827699 L79.5062129,194.882126 L50.7063156,178.239066 Z M323.669646,125.199515 L294.298459,142.172765 L294.298459,176.118337 L323.669646,193.09066 L353.040834,176.117874 L353.040834,142.172765 L323.669646,125.199515 Z M384.401114,125.204153 L355.037803,142.172765 L355.037803,176.118338 L384.409454,193.09066 L413.769521,176.12483 L413.769521,142.175084 L384.401114,125.204153 Z M445.126558,125.199515 L415.76649,142.165809 L415.76649,176.12483 L445.126558,193.09066 L474.498209,176.117874 L474.498209,142.172765 L445.126558,125.199515 Z M262.708366,125.199515 L233.337178,142.172765 L233.337178,176.118337 L262.708366,193.09066 L292.079553,176.118337 L292.079553,142.172765 L262.708366,125.199515 Z M201.968558,125.199515 L172.608954,142.165809 L172.608954,176.12483 L201.968558,193.09066 L231.340209,176.118337 L231.340209,142.172765 L201.968558,125.199515 Z M141.243578,125.204153 L112.847707,141.613483 L112.847707,176.677156 L141.251918,193.09066 L170.611522,176.12483 L170.611522,142.175084 L141.243578,125.204153 Z M81.0041708,125.480548 L52.390997,142.015554 L52.390997,176.275549 L81.0611609,192.842554 L109.894418,176.18048 L109.894418,142.175084 L81.0041708,125.480548 Z M505.238548,125.562167 L476.495177,142.172765 L476.495177,176.118337 L505.295538,192.760934 L533.987478,176.18048 L533.987478,142.175084 L505.238548,125.562167 Z M232.33128,72.5550787 L202.960092,89.5274012 L202.960092,123.473901 L232.33128,140.446687 L261.702931,123.473901 L261.702931,89.527865 L232.33128,72.5550787 Z M293.292561,72.5550787 L263.921373,89.5274012 L263.921373,123.473901 L293.292561,140.446687 L322.664212,123.473901 L322.664212,89.527865 L293.292561,72.5550787 Z M354.032368,72.5550787 L324.660717,89.527865 L324.660717,123.473901 L354.032368,140.446687 L383.392436,123.480394 L383.392436,89.5213725 L354.032368,72.5550787 Z M475.489743,72.5550787 L446.118092,89.527865 L446.118092,123.473901 L475.489743,140.446687 L503.610393,124.196887 L503.610393,88.8053425 L475.489743,72.5550787 Z M414.749472,72.5550787 L385.389404,89.5213725 L385.389404,123.470655 L414.757349,140.44205 L444.12066,123.473901 L444.12066,89.527865 L414.749472,72.5550787 Z M171.591473,72.5550787 L142.231405,89.5213725 L142.231405,123.470655 L171.599813,140.44205 L200.963124,123.473901 L200.963124,89.527865 L171.591473,72.5550787 Z M110.874369,72.5550787 L81.5031813,89.5274012 L81.5031813,122.911836 L111.360406,140.165655 L140.2349,123.480394 L140.2349,89.5213725 L110.874369,72.5550787 Z M50.5765821,72.8101413 L22.0139117,89.3154675 L22.0139117,123.470655 L50.762379,140.084035 L79.5062129,123.473901 L79.5062129,89.527865 L50.5765821,72.8101413 Z M384.401114,19.7005638 L355.037803,36.6682487 L355.037803,70.614285 L384.409454,87.5870713 L413.769521,70.6212412 L413.769521,36.671495 L384.401114,19.7005638 Z M201.968558,19.6954625 L172.608954,36.6617563 L172.608954,70.6212412 L201.968558,87.5870713 L231.340209,70.614285 L231.340209,36.6682487 L201.968558,19.6954625 Z M262.708366,19.6954625 L233.337178,36.6682487 L233.337178,70.614285 L262.708366,87.5870713 L292.079553,70.614285 L292.079553,36.6682487 L262.708366,19.6954625 Z M323.669646,19.6954625 L294.298459,36.6682487 L294.298459,70.614285 L323.669646,87.5870713 L353.040834,70.614285 L353.040834,36.6682487 L323.669646,19.6954625 Z M445.126558,19.6954625 L415.76649,36.6612925 L415.76649,70.6212412 L445.126558,87.5870713 L474.498209,70.614285 L474.498209,36.6682487 L445.126558,19.6954625 Z M141.243578,19.7001 L111.880267,36.6682487 L111.880267,70.614285 L141.251918,87.5870713 L170.611522,70.6212412 L170.611522,36.671495 L141.243578,19.7001 Z M80.5116471,19.6954625 L52.390997,35.9452625 L52.390997,71.3372713 L80.5116471,87.5870713 L109.883298,70.614285 L109.883298,36.6682487 L80.5116471,19.6954625 Z M505.238548,20.0585788 L476.495177,36.6682487 L476.495177,70.614285 L505.424808,87.3320087 L533.987478,70.8266825 L533.987478,36.671495 L505.238548,20.0585788 Z" id="path-1"></path>
        <radialGradient cx="39.5273139%" cy="93.3295559%" fx="39.5273139%" fy="93.3295559%" r="85.6621633%" gradientTransform="translate(0.395273,0.933296),scale(0.441118,1.000000),rotate(-90.338372),translate(-0.395273,-0.933296)" id="radialGradient-3">
            <stop stop-color="#4C8BB7" offset="0%"></stop>
            <stop stop-color="#000000" offset="100%"></stop>
        </radialGradient>
    </defs>
    <g id="Welcome" stroke="none" stroke-width="1" fill="none" fill-rule="evenodd" opacity="0.20787586">
        <g id="Honey">
            <mask id="mask-2" fill="white">
                <use xlink:href="#path-1"></use>
            </mask>
            <g id="Clip-59"></g>
            <path d="M778.014209,70.9807352 L748.636552,87.9732173 L719.259821,70.9807352 L719.259821,36.9953067 L748.636552,20.0028246 L778.014209,36.9953067 L778.014209,70.9807352 Z M778.014209,142.622254 L778.014209,176.606754 L748.636552,193.599236 L719.259358,176.607219 L719.259358,142.622254 L748.636552,125.629308 L778.014209,142.622254 Z M778.014209,248.097844 L778.014209,282.082808 L748.636552,299.07529 L719.259358,282.082808 L719.259358,248.098308 L748.636552,231.105362 L778.014209,248.097844 Z M778.014209,353.724327 L778.014209,387.708827 L748.636552,404.702238 L719.259358,387.708827 L719.259358,353.724327 L748.636552,336.731845 L778.014209,353.724327 Z M717.261981,387.709292 L687.884324,404.702238 L658.518716,387.715792 L658.518716,353.717363 L687.884324,336.731845 L717.261981,353.724327 L717.261981,387.709292 Z M597.777147,387.708827 L597.777147,353.724327 L627.14739,336.736488 L656.521339,353.726649 L656.521339,387.715792 L627.155268,404.702238 L597.777147,387.708827 Z M595.779771,387.709292 L566.40304,404.702238 L538.275713,388.432188 L538.275713,388.283616 L538.275713,353.000966 L566.40304,336.731845 L595.779771,353.724327 L595.779771,387.709292 Z M477.535535,387.708827 L477.535535,353.724327 L506.28571,337.094919 L535.039592,353.726649 L535.039592,388.432188 L506.913192,404.702238 L477.535535,387.708827 Z M475.538158,387.708827 L446.160501,404.702238 L416.794429,387.715792 L416.794429,353.717363 L446.160501,336.731845 L475.538158,353.724327 L475.538158,387.708827 Z M356.053324,387.708827 L356.053324,353.724327 L385.423103,336.736488 L414.797053,353.726649 L414.797053,387.715792 L385.430981,404.702238 L356.053324,387.708827 Z M354.055947,387.708827 L324.678753,404.702238 L295.30156,387.708827 L295.30156,353.724327 L324.678753,336.731845 L354.055947,353.724327 L354.055947,387.708827 Z M293.082201,387.709292 L263.705007,404.702238 L234.327813,387.708827 L234.327813,353.724327 L263.705007,336.731845 L293.082201,353.724327 L293.082201,387.709292 Z M232.330437,387.709292 L202.952779,404.702238 L173.587171,387.715792 L173.587171,353.717827 L202.952779,336.731845 L232.330437,353.724327 L232.330437,387.709292 Z M112.846066,387.708827 L112.846066,353.724327 L142.215845,336.736488 L171.589331,353.726649 L171.589331,387.715792 L142.223723,404.702238 L112.846066,387.708827 Z M110.848689,387.708827 L81.471032,404.702238 L53.3446317,388.432652 L53.3446317,388.283616 L53.3446317,353.000502 L81.471032,336.731845 L110.848689,353.724327 L110.848689,387.708827 Z M-7.39647369,387.708827 L-7.39647369,353.724327 L21.3532379,337.094919 L50.1075839,353.726649 L50.1075839,388.432652 L21.9811835,404.702238 L-7.39647369,387.708827 Z M-9.39385037,387.708827 L-38.7710441,404.702238 L-68.1371156,387.715327 L-68.1371156,353.717827 L-38.7710441,336.731845 L-9.39385037,353.724327 L-9.39385037,387.708827 Z M-128.878221,387.708827 L-128.878221,353.724327 L-99.5084421,336.736488 L-70.1344923,353.727113 L-70.1344923,387.715792 L-99.5005638,404.702238 L-128.878221,387.708827 Z M-130.875598,387.709292 L-160.252791,404.702238 L-189.630449,387.708827 L-189.630449,353.724327 L-160.252791,336.731845 L-130.875598,353.724327 L-130.875598,387.709292 Z M-220.013746,335.003765 L-220.013746,301.018801 L-190.636088,284.026783 L-161.258895,301.019265 L-161.258895,335.003765 L-190.636088,351.996247 L-220.013746,335.003765 Z M-220.013746,229.377746 L-220.013746,195.392781 L-190.636088,178.399835 L-161.258895,195.392781 L-161.258895,229.377746 L-190.636088,246.370228 L-220.013746,229.377746 Z M-220.013746,123.901692 L-220.013746,89.9157989 L-190.636088,72.9237811 L-161.258895,89.9162632 L-161.258895,123.901692 L-190.636088,140.894174 L-220.013746,123.901692 Z M-220.013746,18.2756727 L-220.013746,-15.7097558 L-190.636088,-32.7022379 L-161.258895,-15.7097558 L-161.258895,18.2756727 L-190.636088,35.2681548 L-220.013746,18.2756727 Z M-159.261518,-15.7097558 L-129.883861,-32.7022379 L-100.517789,-15.7162559 L-100.517789,18.2821727 L-129.883861,35.2681548 L-159.261518,18.2756727 L-159.261518,-15.7097558 Z M-39.7766839,-15.7097558 L-39.7766839,18.2756727 L-69.1459994,35.2630476 L-98.5204126,18.2724226 L-98.5204126,-15.7162559 L-69.1543411,-32.7022379 L-39.7766839,-15.7097558 Z M-37.7797707,-15.7097558 L-8.40211346,-32.7022379 L19.7242869,-16.4335811 L19.7242869,18.9990336 L-8.40211346,35.2681548 L-37.7797707,18.2756727 L-37.7797707,-15.7097558 Z M51.0881985,-32.7022379 L80.4653923,-15.7097558 L80.4653923,18.2756727 L51.7161441,34.9046171 L22.9613347,18.2724226 L22.9613347,-16.4335811 L51.0881985,-32.7022379 Z M82.4627689,-15.7097558 L111.839963,-32.7022379 L141.206498,-15.7162559 L141.206498,18.2821727 L111.839963,35.2681548 L82.4627689,18.2756727 L82.4627689,-15.7097558 Z M201.94714,-15.7097558 L201.94714,18.2756727 L172.578287,35.2630476 L143.203411,18.2724226 L143.203411,-15.7162559 L172.569482,-32.7022379 L201.94714,-15.7097558 Z M203.944516,-15.7097558 L233.32171,-32.7022379 L262.699367,-15.7097558 L262.699367,18.2756727 L233.32171,35.2681548 L203.944516,18.2756727 L203.944516,-15.7097558 Z M264.918263,-15.7097558 L294.295456,-32.7022379 L323.673114,-15.7097558 L323.673114,18.2756727 L294.295456,35.2681548 L264.918263,18.2756727 L264.918263,-15.7097558 Z M325.670027,-15.7097558 L355.047684,-32.7022379 L384.413756,-15.7167202 L384.413756,18.2821727 L355.047684,35.2681548 L325.670027,18.2756727 L325.670027,-15.7097558 Z M445.154398,-15.7097558 L445.154398,18.2756727 L415.785545,35.2630476 L386.411132,18.2724226 L386.411132,-15.7162559 L415.777204,-32.7022379 L445.154398,-15.7097558 Z M447.152238,-15.7097558 L476.529895,-32.7022379 L504.656295,-16.4335811 L504.656295,18.9990336 L476.529895,35.2681548 L447.152238,18.2756727 L447.152238,-15.7097558 Z M565.396474,-15.7097558 L565.396474,18.2756727 L536.647689,34.9046171 L507.893343,18.2724226 L507.893343,-16.4335811 L536.019743,-32.7022379 L565.396474,-15.7097558 Z M567.394314,-15.7097558 L596.771971,-32.7022379 L626.137579,-15.7167202 L626.137579,18.2821727 L596.771971,35.2681548 L567.394314,18.2756727 L567.394314,-15.7097558 Z M686.878684,-15.7097558 L686.878684,18.2756727 L657.509832,35.2630476 L628.135419,18.2724226 L628.135419,-15.7167202 L657.501027,-32.7022379 L686.878684,-15.7097558 Z M688.876061,-15.7097558 L718.253718,-32.7022379 L747.630912,-15.7097558 L747.630912,18.2756727 L718.253718,35.2681548 L688.876061,18.2756727 L688.876061,-15.7097558 Z M747.630912,123.901692 L718.253718,140.894174 L688.876061,123.901692 L688.876061,89.9157989 L718.253718,72.9237811 L747.630912,89.9162632 L747.630912,123.901692 Z M747.630912,229.377746 L718.253718,246.370228 L688.876061,229.377746 L688.876061,195.392781 L718.253718,178.399835 L747.630912,195.392781 L747.630912,229.377746 Z M747.630912,335.003765 L718.253718,351.996247 L688.876061,335.003765 L688.876061,301.018801 L718.253718,284.026783 L747.630912,301.019265 L747.630912,335.003765 Z M-189.630449,248.097844 L-160.252791,231.105362 L-130.875598,248.097844 L-130.875598,282.082808 L-160.252791,299.07529 L-189.630449,282.082808 L-189.630449,248.097844 Z M-189.630449,142.622254 L-160.252791,125.629308 L-130.875598,142.622254 L-130.875598,176.607219 L-160.252791,193.599236 L-189.630449,176.607219 L-189.630449,142.622254 Z M-189.630449,36.9953067 L-160.252791,20.0028246 L-130.875598,36.9953067 L-130.875598,70.9807352 L-160.252791,87.9732173 L-189.630449,70.9807352 L-189.630449,36.9953067 Z M567.394314,335.003765 L567.394314,301.019265 L596.771971,284.026783 L626.137579,301.0123 L626.137579,335.010729 L596.771971,351.996247 L567.394314,335.003765 Z M447.152238,335.003765 L447.152238,301.019265 L476.529895,284.026783 L504.656295,300.29544 L504.656295,335.72759 L476.529895,351.996247 L447.152238,335.003765 Z M325.670027,335.003765 L325.670027,301.019265 L355.047684,284.026783 L384.413756,301.0123 L384.413756,335.010729 L355.047684,351.996247 L325.670027,335.003765 Z M264.918263,301.018801 L294.295456,284.026783 L323.673114,301.019265 L323.673114,335.003765 L294.295456,351.996247 L264.918263,335.003765 L264.918263,301.018801 Z M203.944516,335.003765 L203.944516,301.018801 L233.32171,284.026783 L262.699367,301.019265 L262.699367,335.003765 L233.32171,351.996247 L203.944516,335.003765 Z M82.4627689,335.003765 L82.4627689,301.019265 L111.839963,284.026783 L141.206498,301.012765 L141.206498,335.010729 L111.839963,351.996247 L82.4627689,335.003765 Z M-37.7797707,335.003765 L-37.7797707,301.019265 L-8.40211346,284.026783 L19.7242869,300.29544 L19.7242869,335.72759 L-8.40211346,351.996247 L-37.7797707,335.003765 Z M-159.261518,335.003765 L-159.261518,301.019265 L-129.883861,284.026783 L-100.517789,301.0123 L-100.517789,335.010729 L-129.883861,351.996247 L-159.261518,335.003765 Z M-9.39385037,36.9953067 L-9.39385037,70.9807352 L-38.7710441,87.9732173 L-68.1371156,70.9872352 L-68.1371156,36.9888067 L-38.7710441,20.0028246 L-9.39385037,36.9953067 Z M110.848689,36.9953067 L110.848689,70.9807352 L81.471032,87.9732173 L53.3446317,71.7045604 L53.3446317,71.5550596 L53.3446317,36.2714815 L81.471032,20.0028246 L110.848689,36.9953067 Z M232.330437,36.9953067 L232.330437,70.9807352 L202.952779,87.9732173 L173.587171,70.9876995 L173.587171,36.9888067 L202.952779,20.0028246 L232.330437,36.9953067 Z M293.082201,70.9807352 L263.705007,87.9732173 L234.327813,70.9807352 L234.327813,36.9953067 L263.705007,20.0028246 L293.082201,36.9953067 L293.082201,70.9807352 Z M354.055947,36.9953067 L354.055947,70.9807352 L324.678753,87.9732173 L295.30156,70.9807352 L295.30156,36.9953067 L324.678753,20.0028246 L354.055947,36.9953067 Z M475.538158,36.9953067 L475.538158,70.9807352 L446.160501,87.9732173 L416.794429,70.9876995 L416.794429,36.9883424 L446.160501,20.0028246 L475.538158,36.9953067 Z M595.779771,36.9953067 L595.779771,70.9807352 L566.40304,87.9732173 L538.275713,71.7040961 L538.275713,71.5550596 L538.275713,36.2719458 L566.40304,20.0028246 L595.779771,36.9953067 Z M717.261981,36.9953067 L717.261981,70.9807352 L687.884324,87.9732173 L658.518716,70.9876995 L658.518716,36.9883424 L687.884324,20.0028246 L717.261981,36.9953067 Z M628.135419,301.0123 L657.501027,284.026783 L686.878684,301.019265 L686.878684,335.003765 L657.508906,351.991604 L628.135419,335.001443 L628.135419,301.0123 Z M507.893343,300.806157 L536.460464,284.281677 L565.396474,301.019265 L565.396474,335.003765 L536.647225,351.633173 L507.893343,335.001443 L507.893343,300.806157 Z M386.411132,301.0123 L415.777204,284.026783 L445.154398,301.019265 L445.154398,335.004229 L415.785082,351.991604 L386.411132,335.001443 L386.411132,301.0123 Z M143.203411,301.012765 L172.569482,284.026783 L201.94714,301.019265 L201.94714,335.004229 L172.577824,351.991604 L143.203411,335.001443 L143.203411,301.012765 Z M22.9613347,300.806157 L51.528919,284.281677 L80.4653923,301.019265 L80.4653923,335.004229 L51.7156806,351.633173 L22.9613347,335.001443 L22.9613347,300.806157 Z M-98.5204126,301.0123 L-69.1543411,284.026783 L-39.7766839,301.019265 L-39.7766839,335.003765 L-69.1464628,351.991604 L-98.5204126,335.001443 L-98.5204126,301.0123 Z M-70.1344923,70.9872352 L-99.5005638,87.9732173 L-128.878221,70.9807352 L-128.878221,36.9953067 L-99.5089055,20.0074675 L-70.1344923,36.9985567 L-70.1344923,70.9872352 Z M50.1075839,71.1933792 L21.5390728,87.7178588 L-7.39647369,70.9807352 L-7.39647369,36.9953067 L21.3532379,20.3663622 L50.1075839,36.9985567 L50.1075839,71.1933792 Z M171.589331,70.9876995 L142.223723,87.9732173 L112.846066,70.9807352 L112.846066,36.9953067 L142.215381,20.0074675 L171.589331,36.9985567 L171.589331,70.9876995 Z M414.797053,70.9876995 L385.430981,87.9732173 L356.053324,70.9807352 L356.053324,36.9953067 L385.422639,20.0079318 L414.797053,36.9985567 L414.797053,70.9876995 Z M535.039592,71.1933792 L506.471081,87.7178588 L477.535535,70.9807352 L477.535535,36.9953067 L506.284783,20.3663622 L535.039592,36.9985567 L535.039592,71.1933792 Z M656.521339,70.9876995 L627.155268,87.9732173 L597.777611,70.9807352 L597.777611,36.9953067 L627.146926,20.0079318 L656.521339,36.9985567 L656.521339,70.9876995 Z M658.518716,142.61529 L687.884324,125.629308 L717.261981,142.622254 L717.261981,176.607219 L687.884324,193.599236 L658.518716,176.613719 L658.518716,142.61529 Z M658.518716,248.091344 L687.884324,231.105362 L717.261981,248.097844 L717.261981,282.082808 L687.884324,299.07529 L658.518716,282.089773 L658.518716,248.091344 Z M-100.517789,229.384246 L-129.883861,246.370228 L-159.261518,229.377746 L-159.261518,195.392781 L-129.883861,178.399835 L-100.517789,195.386281 L-100.517789,229.384246 Z M-100.517789,123.908192 L-129.883861,140.894174 L-159.261518,123.901692 L-159.261518,89.9157989 L-129.883861,72.9237811 L-100.517789,89.9097632 L-100.517789,123.908192 Z M686.878684,123.901692 L657.509369,140.889531 L628.135419,123.898442 L628.135419,89.9097632 L657.501027,72.9237811 L686.878684,89.9162632 L686.878684,123.901692 Z M686.878684,229.377746 L657.508906,246.365585 L628.135419,229.375424 L628.135419,195.385817 L657.501027,178.399835 L686.878684,195.392781 L686.878684,229.377746 Z M597.777147,248.097844 L627.146926,231.110005 L656.521339,248.10063 L656.521339,282.089308 L627.155268,299.07529 L597.777147,282.082808 L597.777147,248.097844 Z M538.275713,282.657597 L538.275713,247.374483 L566.40304,231.105362 L595.779771,248.097844 L595.779771,282.082808 L566.40304,299.07529 L538.275713,282.806169 L538.275713,282.657597 Z M477.535535,248.097844 L506.285246,231.468435 L535.039592,248.10063 L535.039592,282.295916 L506.472008,298.819932 L477.535535,282.082808 L477.535535,248.097844 Z M416.794429,248.091344 L446.160501,231.105362 L475.538158,248.097844 L475.538158,282.082808 L446.160501,299.07529 L416.794429,282.089773 L416.794429,248.091344 Z M356.053324,248.097844 L385.423103,231.110005 L414.797053,248.10063 L414.797053,282.089773 L385.430981,299.07529 L356.053324,282.082808 L356.053324,248.097844 Z M295.30156,248.097844 L324.678753,231.105362 L354.055947,248.097844 L354.055947,282.082808 L324.678753,299.07529 L295.30156,282.082808 L295.30156,248.097844 Z M234.327813,248.097844 L263.705007,231.105362 L293.082201,248.097844 L293.082201,282.082808 L263.705007,299.07529 L234.327813,282.082808 L234.327813,248.097844 Z M173.587171,248.091344 L202.952779,231.105362 L232.330437,248.097844 L232.330437,282.082808 L202.952779,299.07529 L173.587171,282.089773 L173.587171,248.091344 Z M112.846066,248.097844 L142.215845,231.110005 L171.589331,248.10063 L171.589331,282.089308 L142.223723,299.07529 L112.846066,282.082808 L112.846066,248.097844 Z M53.3446317,282.657597 L53.3446317,247.374483 L81.471032,231.105362 L110.848689,248.097844 L110.848689,282.082808 L81.471032,299.07529 L53.3446317,282.806633 L53.3446317,282.657597 Z M-7.39647369,248.097844 L21.3532379,231.468435 L50.1075839,248.10063 L50.1075839,282.295916 L21.5399996,298.819932 L-7.39647369,282.082808 L-7.39647369,248.097844 Z M-68.1371156,248.091344 L-38.7710441,231.105362 L-9.39385037,248.097844 L-9.39385037,282.082808 L-38.7710441,299.07529 L-68.1371156,282.089308 L-68.1371156,248.091344 Z M-128.878221,248.097844 L-99.5084421,231.110005 L-70.1344923,248.10063 L-70.1344923,282.089308 L-99.5005638,299.07529 L-128.878221,282.082808 L-128.878221,248.097844 Z M-128.878221,142.622254 L-99.5089055,125.633951 L-70.1344923,142.62504 L-70.1344923,176.613719 L-99.5005638,193.599236 L-128.878221,176.607219 L-128.878221,142.622254 Z M-39.7766839,123.901692 L-69.1464628,140.889531 L-98.5204126,123.898442 L-98.5204126,89.9092989 L-69.1543411,72.9237811 L-39.7766839,89.9162632 L-39.7766839,123.901692 Z M19.7242869,124.625517 L-8.40211346,140.894174 L-37.7797707,123.901692 L-37.7797707,89.9162632 L-8.40211346,72.9237811 L19.7242869,89.192438 L19.7242869,124.625517 Z M80.4653923,123.901692 L51.7156806,140.5311 L22.9613347,123.898442 L22.9613347,89.7036192 L51.5298458,73.1791396 L80.4653923,89.9162632 L80.4653923,123.901692 Z M141.206498,123.908192 L112.326099,140.612815 L82.4627689,123.338974 L82.4627689,89.9157989 L111.839963,72.9237811 L141.206498,89.9097632 L141.206498,123.908192 Z M201.94714,123.901692 L172.577824,140.889531 L143.203411,123.898442 L143.203411,89.9097632 L172.569482,72.9237811 L201.94714,89.9162632 L201.94714,123.901692 Z M262.699367,123.901692 L233.32171,140.894174 L203.944516,123.901692 L203.944516,89.9157989 L233.32171,72.9237811 L262.699367,89.9162632 L262.699367,123.901692 Z M323.673114,123.901692 L294.295456,140.894174 L264.918263,123.901692 L264.918263,89.9157989 L294.295456,72.9237811 L323.673114,89.9162632 L323.673114,123.901692 Z M384.413756,123.908192 L355.047684,140.894174 L325.670027,123.901692 L325.670027,89.9162632 L355.047684,72.9237811 L384.413756,89.9097632 L384.413756,123.908192 Z M445.154398,123.901692 L415.785082,140.889531 L386.411132,123.898442 L386.411132,89.9097632 L415.777204,72.9237811 L445.154398,89.9162632 L445.154398,123.901692 Z M504.656295,124.625517 L476.529895,140.894174 L447.152238,123.901692 L447.152238,89.9162632 L476.529895,72.9237811 L504.656295,89.1929023 L504.656295,124.625517 Z M565.396474,123.901692 L536.647225,140.5311 L507.893343,123.898442 L507.893343,89.7036192 L536.460927,73.1791396 L565.396474,89.9162632 L565.396474,123.901692 Z M626.137579,123.908656 L596.771971,140.894174 L567.394314,123.901692 L567.394314,89.9162632 L596.771971,72.9237811 L626.137579,89.9097632 L626.137579,123.908656 Z M567.394314,195.392781 L596.771971,178.399835 L626.137579,195.385817 L626.137579,229.384246 L596.771971,246.370228 L567.394314,229.377746 L567.394314,195.392781 Z M447.152238,195.392781 L476.529895,178.399835 L504.656295,194.668956 L504.656295,230.101107 L476.529895,246.370228 L447.152238,229.377746 L447.152238,195.392781 Z M325.670027,195.392781 L355.047684,178.399835 L384.413756,195.385817 L384.413756,229.384246 L355.047684,246.370228 L325.670027,229.377746 L325.670027,195.392781 Z M264.918263,195.392781 L294.295456,178.399835 L323.673114,195.392781 L323.673114,229.377746 L294.295456,246.370228 L264.918263,229.377746 L264.918263,195.392781 Z M203.944516,195.392781 L233.32171,178.399835 L262.699367,195.392781 L262.699367,229.377746 L233.32171,246.370228 L203.944516,229.377746 L203.944516,195.392781 Z M82.4627689,195.88957 L112.270024,178.648694 L141.206498,195.386281 L141.206498,229.384246 L111.839963,246.370228 L82.4627689,229.377746 L82.4627689,195.88957 Z M-37.7797707,195.392781 L-8.40211346,178.399835 L19.7242869,194.668956 L19.7242869,230.101107 L-8.40211346,246.370228 L-37.7797707,229.377746 L-37.7797707,195.392781 Z M-9.39385037,176.606754 L-38.7710441,193.599236 L-68.1371156,176.613254 L-68.1371156,142.615754 L-38.7710441,125.629308 L-9.39385037,142.622254 L-9.39385037,176.606754 Z M110.859812,176.669433 L82.0206582,193.350842 L53.3446317,176.764612 L53.3446317,142.464861 L81.9636565,125.910667 L110.859812,142.624576 L110.859812,176.669433 Z M171.589331,142.624576 L171.589331,176.613719 L142.223723,193.599236 L113.813705,177.166686 L113.813705,142.062323 L142.215381,125.633951 L171.589331,142.624576 Z M232.330437,176.607219 L202.952779,193.599236 L173.587171,176.613719 L173.587171,142.61529 L202.952779,125.629308 L232.330437,142.622254 L232.330437,176.607219 Z M293.082201,176.607219 L263.705007,193.599236 L234.327813,176.607219 L234.327813,142.622254 L263.705007,125.629308 L293.082201,142.622254 L293.082201,176.607219 Z M354.055947,176.606754 L324.678753,193.599236 L295.30156,176.607219 L295.30156,142.622254 L324.678753,125.629308 L354.055947,142.622254 L354.055947,176.606754 Z M475.538158,176.606754 L446.160501,193.599236 L416.794429,176.613719 L416.794429,142.61529 L446.160501,125.629308 L475.538158,142.622254 L475.538158,176.606754 Z M595.779771,176.607219 L566.40304,193.599236 L538.275713,177.330115 L538.275713,177.181543 L538.275713,141.898893 L566.40304,125.629308 L595.779771,142.622254 L595.779771,176.607219 Z M477.535535,142.622254 L506.284783,125.992381 L535.039592,142.624576 L535.039592,176.669433 L506.341785,193.269127 L477.535535,176.607219 L477.535535,142.622254 Z M356.053324,142.622254 L385.422639,125.633951 L414.797053,142.624576 L414.797053,176.613719 L385.430981,193.599236 L356.053324,176.607219 L356.053324,142.622254 Z M-7.39647369,142.622254 L21.3532379,125.992381 L51.0868082,143.191007 L51.0868082,176.103002 L21.4097762,193.269127 L-7.39647369,176.607219 L-7.39647369,142.622254 Z M-39.7766839,229.377746 L-69.1464628,246.365585 L-98.5204126,229.375424 L-98.5204126,195.386281 L-69.1543411,178.399835 L-39.7766839,195.392781 L-39.7766839,229.377746 Z M80.4653923,229.377746 L51.7156806,246.007154 L22.9613347,229.37496 L22.9613347,195.330103 L51.6596058,178.730408 L80.4653923,195.392781 L80.4653923,229.377746 Z M201.94714,229.377746 L172.577824,246.365585 L143.203411,229.37496 L143.203411,195.386281 L172.569482,178.399835 L201.94714,195.392781 L201.94714,229.377746 Z M445.154398,229.377746 L415.785082,246.365585 L386.411132,229.37496 L386.411132,195.386281 L415.777204,178.399835 L445.154398,195.392781 L445.154398,229.377746 Z M565.396474,229.377746 L536.647225,246.007154 L507.893343,229.37496 L507.893343,195.330103 L536.591151,178.730408 L565.396474,195.392781 L565.396474,229.377746 Z M656.521339,176.613719 L627.155268,193.599236 L597.777147,176.607219 L597.777147,142.622254 L627.146926,125.633951 L656.521339,142.624576 L656.521339,176.613719 Z M749.616703,18.2724226 L749.616703,-16.858869 L718.253718,-35 L687.877836,-17.4299434 L657.501027,-35 L627.136731,-17.4364435 L596.771971,-35 L566.395625,-17.4299434 L536.019743,-35 L506.274587,-17.7948739 L476.529895,-35 L446.153549,-17.4299434 L415.777204,-35 L385.412444,-17.4364435 L355.047684,-35 L324.671802,-17.4299434 L294.295456,-35 L263.808815,-17.3658717 L233.32171,-35 L202.945828,-17.4299434 L172.569482,-35 L142.205186,-17.4364435 L111.839963,-35 L81.4640806,-17.4299434 L51.0877351,-35 L21.3430425,-17.7948739 L-8.40211346,-35 L-38.778459,-17.4299434 L-69.1543411,-35 L-99.5191009,-17.4364435 L-129.883861,-35 L-160.260206,-17.4299434 L-190.636088,-35 L-222,-16.858869 L-222,19.4243216 L-191.61624,36.9985567 L-191.61624,71.1933792 L-222,88.7676143 L-222,125.050341 L-191.61624,142.624576 L-191.61624,176.669433 L-222,194.244133 L-222,230.52593 L-191.61624,248.10063 L-191.61624,282.295916 L-222,299.870152 L-222,336.152414 L-191.61624,353.726649 L-191.61624,388.857476 L-160.252791,407 L-129.876446,389.429015 L-99.5005638,407 L-69.1353405,389.435515 L-38.7710441,407 L-8.3946986,389.429015 L21.9811835,407 L51.7263395,389.793945 L81.471032,407 L111.847378,389.429015 L142.223723,407 L172.588483,389.435515 L202.952779,407 L233.329125,389.428551 L263.705007,407 L294.192112,389.364943 L324.678753,407 L355.055099,389.429015 L385.430981,407 L415.795741,389.435515 L446.160037,407 L476.536846,389.429015 L506.913192,407 L536.657884,389.793945 L566.40304,407 L596.778922,389.429015 L627.154805,407 L657.520028,389.435515 L687.884324,407 L718.261133,389.429015 L748.636552,407 L780,388.85794 L780,388.283616 L780,352.575214 L749.616703,335.001443 L749.616703,300.806157 L780,283.231457 L780,282.657597 L780,246.949195 L749.616703,229.37496 L749.616703,195.330103 L780,177.755403 L780,177.181543 L780,141.473141 L749.616703,123.898442 L749.616703,89.7036192 L780,72.1293841 L780,71.5550596 L780,35.8466578 L749.616703,18.2724226 Z" id="Fill-58" fill="url(#radialGradient-3)" mask="url(#mask-2)"></path>
        </g>
    </g>
</svg>